<svg version="1.1" id="Layer_1" xmlns="http://www.w3.org/2000/svg" xmlns:xlink="http://www.w3.org/1999/xlink" x="0px" y="0px"
	 width="100%" viewBox="0 0 450 450" enable-background="new 0 0 450 450" xml:space="preserve">
<path fill="#FDD000" opacity="1.000000" stroke="none" 
	d="
M450.636047,69.655624 
	C451.000000,195.454681 450.984863,320.909363 451.078278,446.363983 
	C451.080872,449.862732 450.691467,451.116669 446.639130,451.112976 
	C299.525726,450.978455 152.412170,450.985962 5.298725,451.085846 
	C1.830209,451.088196 0.888378,450.545074 0.892261,446.801605 
	C1.022225,321.513611 1.000000,196.225449 1.000000,70.468658 
	C2.635650,67.888741 4.992373,67.807526 7.342596,67.800781 
	C37.474922,67.714272 67.607254,67.696266 97.739662,67.791908 
	C100.319374,67.800087 102.669128,68.337471 105.185547,70.130836 
	C107.829353,72.965897 107.195992,76.108284 107.209702,79.030975 
	C107.309746,100.357536 107.258194,121.684586 107.259384,143.011475 
	C107.262939,206.658951 107.257004,270.306427 107.263710,333.953888 
	C107.264847,344.724609 107.280403,344.736542 118.175453,344.737183 
	C190.153748,344.741516 262.132019,344.742310 334.110321,344.736481 
	C344.632965,344.735626 344.734924,344.637512 344.735870,334.171570 
	C344.743439,250.363510 344.729095,166.555450 344.768677,82.747414 
	C344.770477,78.947670 344.224335,75.070702 345.955170,70.964386 
	C348.938416,68.286957 352.096649,67.752937 355.522156,67.750832 
	C384.906403,67.732788 414.290680,67.712296 443.674774,67.797691 
	C445.944031,67.804283 448.387573,67.450951 450.636047,69.655624 
z"/>
<path fill="#000000" opacity="1.000000" stroke="none" 
	d="
M347.414368,70.705063 
	C347.111084,72.995888 347.007141,74.991730 347.006958,76.987587 
	C346.998901,165.144196 346.962494,253.300858 347.107605,341.457214 
	C347.115082,345.997650 345.994324,347.117065 341.455902,347.108185 
	C264.464996,346.957489 187.473602,346.952576 110.482750,347.117432 
	C105.810562,347.127441 104.895912,345.804382 104.902008,341.395844 
	C105.026093,251.573029 104.986984,161.750015 104.906921,71.463501 
	C102.846458,69.263000 103.026833,66.901711 102.848579,64.571823 
	C101.676605,49.252621 97.843681,34.810780 88.203377,22.460802 
	C83.165634,16.007071 77.410065,10.336387 69.789429,6.820287 
	C67.537498,5.781263 64.475479,5.182342 64.777245,1.315553 
	C172.020889,1.000000 279.041779,1.000000 386.531342,1.000000 
	C388.328796,3.624164 386.341370,4.684575 384.605652,5.503002 
	C366.345154,14.113214 356.962708,29.510199 351.811401,48.169537 
	C350.219330,53.936489 349.103516,59.781708 349.092346,65.796257 
	C349.089233,67.475090 348.978851,69.132812 347.414368,70.705063 
z"/>
<path fill="#2DBFBF" opacity="1.000000" stroke="none" 
	d="
M64.531349,1.000000 
	C63.800709,2.323138 65.179390,2.627558 65.889565,2.894046 
	C85.762024,10.351015 96.080116,26.015766 101.882607,45.297157 
	C104.292923,53.306538 105.667648,61.605633 104.903824,70.540443 
	C100.645767,69.909790 96.369179,70.169922 92.110947,70.168144 
	C62.050194,70.155632 31.989439,70.146881 1.464343,70.068466 
	C1.000000,63.978848 1.000000,57.957695 1.000000,51.468269 
	C2.400823,49.719086 1.992719,47.900948 2.293303,46.331402 
	C5.741714,28.325012 15.167970,14.468102 30.637472,4.577970 
	C33.434452,2.789773 36.651760,2.910075 39.717361,1.242737 
	C48.020901,1.000000 56.041798,1.000000 64.531349,1.000000 
z"/>
<path fill="#2DBFBF" opacity="1.000000" stroke="none" 
	d="
M347.582458,70.998520 
	C346.322357,47.013885 354.258514,26.646433 372.126648,10.357256 
	C376.639496,6.243191 382.485809,4.520375 387.327057,1.291665 
	C395.020905,1.000000 403.041809,1.000000 411.531372,1.000000 
	C414.800262,3.195530 418.493286,2.802643 421.585205,4.700480 
	C435.110474,13.002389 443.228943,25.286371 448.616669,39.745983 
	C449.892761,43.170715 449.325134,46.966278 450.759460,50.715179 
	C451.000000,57.021152 451.000000,63.042301 451.000000,69.531731 
	C419.433899,70.055603 387.867767,70.117149 356.301666,70.156532 
	C353.498901,70.160034 350.702850,70.087936 347.582458,70.998520 
z"/>
<path fill="#000000" opacity="1.000000" stroke="none" 
	d="
M39.531342,1.000000 
	C40.871346,2.521286 39.683071,2.690027 38.688957,3.099893 
	C20.476433,10.608767 10.514102,25.002766 4.794752,43.170483 
	C3.907489,45.988895 3.954368,49.310806 1.315367,51.320526 
	C1.000000,35.244907 1.064594,19.489262 0.930096,3.735316 
	C0.910008,1.382482 1.393444,0.899336 3.739015,0.929832 
	C15.511885,1.082897 27.287823,1.000000 39.531342,1.000000 
z"/>
<path fill="#000000" opacity="1.000000" stroke="none" 
	d="
M451.000000,50.531342 
	C449.389313,51.853127 449.226807,50.651989 449.032593,49.581009 
	C446.714233,36.798634 440.660614,25.783861 432.376892,16.052402 
	C427.833252,10.714655 421.862061,6.897449 415.410919,4.021520 
	C413.930237,3.361433 412.302856,3.030136 411.670929,1.274350 
	C423.940704,1.000000 435.883667,1.125152 447.820496,0.909670 
	C450.709015,0.857527 451.098633,1.644612 451.072754,4.290694 
	C450.923523,19.546803 451.000000,34.805115 451.000000,50.531342 
z"/>
</svg>